name Walk3.mot
datacolumns 19
datarows 10
range 2.41100000 2.42000000
endheader

                time	   L_ground_force_vx	   L_ground_force_vy	   L_ground_force_vz	   L_ground_force_px	   L_ground_force_py	   L_ground_force_pz	   R_ground_force_vx	   R_ground_force_vy	   R_ground_force_vz	   R_ground_force_px	   R_ground_force_py	   R_ground_force_pz	   L_ground_torque_x	   L_ground_torque_y	   L_ground_torque_z	   R_ground_torque_x	   R_ground_torque_y	   R_ground_torque_z	
          2.41100000	         16.55034573	        760.42964130	         55.14482748	         -0.26011473	          0.00000000	         -0.09995309	          0.00219952	          0.02344236	          0.00861971	          0.00004320	          0.00000000	          0.00002359	          0.00000000	          2.54402758	          0.00000000	          0.00000000	         -0.00110138	          0.00000000	
          2.41200000	         16.87293105	        760.76491302	         55.23633886	         -0.25983969	          0.00000000	         -0.09997462	          0.00216772	          0.02790478	          0.00944354	          0.00004742	          0.00000000	          0.00002589	          0.00000000	          2.54449916	          0.00000000	          0.00000000	         -0.00115764	          0.00000000	
          2.41300000	         17.19831680	        761.10447523	         55.32748075	         -0.25956502	          0.00000000	         -0.09999604	          0.00212400	          0.03266663	          0.01030492	          0.00005183	          0.00000000	          0.00002831	          0.00000000	          2.54475449	          0.00000000	          0.00000000	         -0.00121436	          0.00000000	
          2.41400000	         17.52659540	        761.44842539	         55.41832913	         -0.25929069	          0.00000000	         -0.10001738	          0.00206746	          0.03773607	          0.01120378	          0.00005643	          0.00000000	          0.00003083	          0.00000000	          2.54480541	          0.00000000	          0.00000000	         -0.00127133	          0.00000000	
          2.41500000	         17.85785571	        761.79684066	         55.50896287	         -0.25901672	          0.00000000	         -0.10003866	          0.00199711	          0.04312074	          0.01213990	          0.00006123	          0.00000000	          0.00003345	          0.00000000	          2.54466412	          0.00000000	          0.00000000	         -0.00132835	          0.00000000	
          2.41600000	         18.19218309	        762.14978008	         55.59946295	         -0.25874308	          0.00000000	         -0.10005991	          0.00191199	          0.04882769	          0.01311287	          0.00006623	          0.00000000	          0.00003619	          0.00000000	          2.54434282	          0.00000000	          0.00000000	         -0.00138517	          0.00000000	
          2.41700000	         18.52965957	        762.50728769	         55.68991176	         -0.25846977	          0.00000000	         -0.10008113	          0.00181106	          0.05486331	          0.01412210	          0.00007141	          0.00000000	          0.00003902	          0.00000000	          2.54385364	          0.00000000	          0.00000000	         -0.00144156	          0.00000000	
          2.41800000	         18.87036389	        762.86939605	         55.78039263	         -0.25819679	          0.00000000	         -0.10010236	          0.00169327	          0.06123321	          0.01516679	          0.00007678	          0.00000000	          0.00004197	          0.00000000	          2.54320871	          0.00000000	          0.00000000	         -0.00149723	          0.00000000	
          2.41900000	         19.21437163	        763.23612957	         55.87098963	         -0.25792413	          0.00000000	         -0.10012359	          0.00155754	          0.06794214	          0.01624593	          0.00008233	          0.00000000	          0.00004501	          0.00000000	          2.54242036	          0.00000000	          0.00000000	         -0.00155190	          0.00000000	
          2.42000000	         19.56175505	        763.60750736	         55.96178765	         -0.25765179	          0.00000000	         -0.10014486	          0.00140276	          0.07499391	          0.01735824	          0.00008806	          0.00000000	          0.00004814	          0.00000000	          2.54150136	          0.00000000	          0.00000000	         -0.00160523	          0.00000000	
